# xmcd
#
# Track frame offsets: 
#        150
#        16849
#        29954
#        43764
#        60299
#        80626
#        99256
#        119893
#        137742
#        153119
#
# Disc length: 2246 seconds
#
# Revision: 0
# Processed by: cddbd v1.5.2PL0 Copyright (c) Steve Scherf et al.
# Submitted via: ExactAudioCopy v1.3
#
DISCID=8008c40a
DTITLE=The Delta Saints - Monte Vista
DYEAR=2017
DGENRE=Blues Rock
TTITLE0=California
TTITLE1=Sun God
TTITLE2=Burning Wheels
TTITLE3=Are You?
TTITLE4=Crows
TTITLE5=Roses
TTITLE6=Space Man
TTITLE7=Young and Crazy
TTITLE8=In Your Head
TTITLE9=Two Days
EXTD=
EXTT0=
EXTT1=
EXTT2=
EXTT3=
EXTT4=
EXTT5=
EXTT6=
EXTT7=
EXTT8=
EXTT9=
PLAYORDER=
